<?xml version="1.0" encoding="UTF-8"?>
<svg version="1.1" viewBox="0 0 61.4 36.663" xmlns="http://www.w3.org/2000/svg">
<g transform="translate(-169.6,-3.33)">
<path d="m190.06 21.42c0-0.99 0.07-1.96 0.21-2.9-2.31-1.75-5.63-2.78-9.54-2.78-2.76 0.44-5.19 1.66-7.36 3.52l1.47-9.29h16.36l1.96-4.08v-2.56h-20.94l-2.62 18.58 1.53 1.28 1.8-0.77c2.29-1.02 3.6-1.33 5.4-1.33 3.49 0 5.62 2.55 5.62 6.74 0 2.3-0.65 4.29-1.8 5.41h-12.49v6.64h6.82l2.78-0.02c5.27-1.24 12.47-7.92 13.07-9.24-1.4952-2.8358-2.2745-5.9942-2.27-9.2zm37.15-12.82c0-1.07 0.87-1.87 1.9-1.87 1.02 0 1.89 0.79 1.89 1.87s-0.87 1.88-1.89 1.88c-1.03-0.01-1.9-0.8-1.9-1.88m1.9 1.56c0.85 0 1.51-0.66 1.51-1.56 0-0.89-0.67-1.55-1.51-1.55-0.85 0-1.52 0.67-1.52 1.55 0 0.9 0.67 1.56 1.52 1.56m-0.39-0.48h-0.33v-2.15h0.82c0.51 0 0.76 0.19 0.76 0.61 0 0.39-0.24 0.55-0.56 0.59l0.61 0.95h-0.37l-0.57-0.93h-0.38v0.93zm0.39-1.21c0.28 0 0.53-0.02 0.53-0.35 0-0.27-0.24-0.32-0.47-0.32h-0.45v0.67z"/>
<path d="m211.84 8.69 0.98-0.21s-1.49-3.33-2.11-5.03c0.54-0.03 1.04 0 1.52 0.12 0.75 1.26 2.08 3.75 2.08 3.75s2.32-1.31 3.51-1.93c0.36 0.06 0.72 0.3 0.98 0.57l-3.57 3.16 1.05 2.95s2.52-3.55 3.77-5.25c0.45 0.06 0.8 0.45 1.07 0.77-0.5 0.92-1.28 1.79-1.67 2.68 1.52 0.12 3.04 0.06 4.53 0.18 0.39 0.45 0.83 0.95 1.01 1.52l-3.78 0.3-1.8 3.12 2.45-0.54s1.91-0.79 3.91-1.56c0.36 0.48 0.57 0.98 0.71 1.55l-4.08 1.64-3.63 0.77c-0.54 0.6-0.83 1.28-1.25 1.91 3.25-0.6 6.4-1.64 9.68-2.29 1.46 4.91 0.63 10.45-2.03 14.59-8.84 2.23-18.23-0.6-27.37 0.63l-2.65 0.33c-1.88-2.29-2.83-5.09-3.33-8.01-0.45-3.19-0.09-6.64 1.07-9.47 0.26-0.04 4.3-0.4 4.3-0.4l-2.48-3c0.09-0.51 0.53-0.89 0.86-1.31 1.29 1.35 3.72 4.11 3.72 4.11l1.37-0.12-4.26-4.85c0.42-0.66 1.13-1.34 1.76-1.79l3.6 0.65s-0.03-1.94 0.03-3.01c0.74-0.42 1.58-0.77 2.38-0.92 0.72 1.28 1.25 2.65 2.03 3.93 0.92-1.49 1.73-3.16 2.56-4.76 0.09-0.06 0.27-0.12 0.39-0.03zm-2.68-1.73-1.91 3.63 1.14 3.73 1.67-1.17 0.44-3.12c-0.45-1.05-0.86-2.12-1.34-3.07m-5.57 0.21v1.82l0.89 0.21c-0.2-0.72-0.56-1.38-0.89-2.03m-4.67 2.17v0.12c0.95 0.95 2.86 3.08 2.86 3.08v-2.4zm14.51 0.85-0.83 0.55 0.18 0.62 0.76-0.7zm-9.75 0.79 0.12 3.36 1.28-2.92zm15.56 1.41-1.21 0.14-1.89 2.99 1.22-0.04zm-7.43 2.19 0.15 3.45 2.59-3.31c0.23-0.25 0.31-0.69 0.31-0.69l-0.49-1.56zm-5.6-0.44-0.8 1.61 1.55 1.76c-0.21-1.17-0.45-2.27-0.75-3.37m3.64 1.45-0.99 0.48 0.06 1.38 0.82 0.28zm-10.35 0.18-1.39 2.15 2.83 1.1 2.35-2.05-0.89-0.95zm-5.82 0.43 2.46 1.14 0.77-1.28zm21.17 1.6-1.31 2.14 1.49-0.14 1.33-2.2zm-10.01 0.44-4.47 3.66-2.14 0.1s0.87-0.97 1.17-1.51c-0.77-0.36-1.64-0.73-2.45-0.96l-1.58 2.11c-0.51 0.06-1.07 0-1.46 0.18-0.12 1.76 0.27 3.4 0.59 5.03 0.15 0.42 0.27 1.13 0.89 1.07 4.41 0 8.55 0.68 12.9 1.13v-6.67c-0.21-0.45-0.79-1.25-1.09-1.61l-2.01 1.19-3.68 0.04c-0.03-0.06 3.04-1.76 4.44-2.68-0.39-0.39-0.63-0.84-1.11-1.08m-10.69 0.09c-0.27 0.6-0.24 1.46-0.18 2.08 0.36-0.57 1.21-1.69 1.21-1.69zm31.45 0.9-1.58 0.45c0.42 0.83 1.37 2.5 1.37 2.5l-1.91 0.06-1.7-2.03c-0.83 0.18-2.73 0.6-2.73 0.6l0.76 1.42-1.37 0.16-1.07-1.38s-3.9 1.13-5.81 1.73l-0.12 0.18c0.03 2.14 0.18 4.26 0.42 6.31l0.18 0.45c3.63 0.69 7.3 0.86 11.14 1.07l0.36-0.15c1.04-1.49 1.64-3.16 2.2-4.85 0.6-1.97 0.75-4.68-0.14-6.52"/>
<path d="m224.5 32.54c-1.1 1.49-2.53 3.01-4.14 4.08-8.34-0.12-15.99-2.38-24.12-2.77-0.27-0.24-0.54-0.51-0.63-0.86 6.34-1.1 12.77-0.48 19.06-0.09 3.28 0.15 6.73-0.06 9.86-0.65zm-12.48 3.96c2.41 0.27 4.85 0.48 7.27 0.77-5.03 3.51-13.05 3.57-18.26 0.51-1.43-0.89-2.95-1.85-4.08-3.19 0.06-0.18 0.36-0.03 0.54-0.12l3.45 0.3z"/>
</g>
</svg>
