<svg xmlns="http://www.w3.org/2000/svg" viewBox="0 0 231 40"><g fill="#000" fill-rule="nonzero"><path d="M143.35 8.13c0-1.07.87-1.86 1.9-1.86 1.02 0 1.89.79 1.89 1.86 0 1.08-.87 1.88-1.89 1.88-1.03-.01-1.9-.8-1.9-1.88m1.9 1.56c.85 0 1.51-.66 1.51-1.56 0-.89-.67-1.55-1.51-1.55-.86 0-1.52.67-1.52 1.55-.01.9.66 1.56 1.52 1.56m-.4-.48h-.33V7.05h.82c.51 0 .76.19.76.61 0 .39-.24.55-.56.59l.61.95h-.37l-.57-.94h-.38v.95zm.39-1.21c.28 0 .53-.02.53-.35 0-.27-.24-.32-.47-.32h-.44V8h.38zM21.62 4.99c.74 2.86 1.4 5.75 1.94 8.7.09.59-.12 1.01-.48 1.4-.3.36-.65.51-1.07.57-.6 0-1.13-.18-1.55-.65-1.25-1.85-1.64-4.05-3.16-5.72-.39-.3-.92-.51-1.4-.27l-.36.36.27 26.65c.12.83.89 1.52 1.7 1.67.66-.18 1.16-.86 1.28-1.49l.09-1.49-.15-12.98c-.24-.95-1.49-.98-1.67-1.88.15-.51.71-.86 1.16-1.07 1.7-.75 3.48-1.22 5.12-2.09.51-.03 1.13-.12 1.58.15l.3.42.18 18.64c.15.63.33 1.49 1.13 1.64.33.27.24.74.06 1.07-.39.6-1.1.63-1.67.69h-6.19c-.51.03-.89-.3-1.25-.63-1.34 1.04-3.63.63-5.18.72-1.82-.21-4.08.51-5.69-.6-.27-.21-.21-.63-.18-.86.3-.6 1.19-.39 1.37-1.13l.27-.83-.08-20.27-.12-6.34a.989.989 0 0 0-.92-.42c-.68.06-1.1.77-1.46 1.28-.8 1.43-1.34 3.01-2.06 4.47-.24.51-.66.83-1.16 1.04-.71.24-1.4-.06-1.88-.57-.83-1.04-.09-2.41 0-3.54l1.4-6.43c.18-.33.36-.77.74-.86 1.14-.42 1.38 1.16 2.45.86l13.88-.12c.83-.06 1.34-1.37 2.32-.74l.44.65zM106.65 5.35l.3.42.09 4.41.21 25.58c.12.72.39 1.43 1.16 1.76.24.27.24.71.15 1.07-.33.86-1.28.98-2.11.98l-5.81-.03c-.48-.09-1.01-.27-1.28-.75-.21-.36-.21-.8-.03-1.19.6-.39 1.25-.77 1.31-1.58l-.03-11.91c-.09-.98.03-2.38-.09-3.3-.45 1.07.06 2.59-1.13 3.22-.51.21-1.04 0-1.46-.24-.53-.51-.77-1.19-.95-1.88-.33-.33-.78-.09-1.1.06-4.53 3.22-2.56 9.44-2.95 14.29-.06.98 1.22.63 1.34 1.52 0 .42-.18.77-.42 1.07-.42.42-1.1.39-1.64.45l-6.4-.06c-.42-.09-.77-.42-.92-.81-.12-.3-.12-.71.12-.98.39-.39 1.07-.3 1.25-.92l.03-1.46-.12-13.43c-.06-1.13-1.76-1.04-1.61-2.26l.8-.71c1.85-.8 3.78-1.4 5.6-2.23.68-.09 1.37-.09 1.76.54.18.98-.09 2.14.21 3.22.06.12.24.06.33.03 1.13-1.73 2.59-3.75 4.85-3.6.86.06 1.85.12 2.32.92l.12-.27-.09-5.03-.06-.03c.09-.48-.03-1.1-.12-1.64.06-1.1-1.7-1.16-1.16-2.35 1.61-1.88 4.29-1.7 6.16-3.16.5-.14 1.01.01 1.37.28"/><path d="m61.2 5.2.21.54.09 11.44c.45.83.95-.48 1.52-.54 1.67-.57 3.6.06 4.79 1.4 2.32 2.47 2.68 5.63 3.25 8.85l.09-.09c.36-3.69 1.1-7.6 4.47-9.62 1.76-1.07 4.35-.95 6.04.03 2.08 1.85 3.75 4.14 3.66 6.97 0 .8-.03 1.49-.27 2.17-2.47 1.19-5.12 2.05-7.65 3.13-.6.45-.09 1.19 0 1.7.42 1.04.95 2.5 2.26 2.71.71.24 1.76.69 2.44.06.77-.71.18-2.83 1.91-2.29.68.15 1.31.51 1.67 1.16.45 2-.45 3.84-1.4 5.36-1.76 1.52-4.2 1.79-6.46 1.49-4.41-.89-5.99-5.57-6.58-9.44-.36 3.54-.57 7.83-4.47 9.26-2.38.66-5.06.18-6.73-1.52-.21-.3-.27-.77-.69-.92-.98.03-.98 1.13-1.49 1.73-.63.39-1.28.98-2.08.75-.3-.15-.48-.48-.66-.72-.83.92-2.05.63-3.19.68l-4.5-.06c-.51-.09-1.04-.42-1.16-.95-.09-.54.48-.78.83-.95.42-.72.69-1.49.6-2.41-.15-3.93-.48-7.92-1.1-11.67-.24-.77-.45-1.67-1.13-2.17-.51-.18-.86.21-1.19.45l-.39.63.03 13.79c.18.65.45 1.4 1.19 1.64.18.24.21.6.09.86-.83 1.22-2.56.63-3.72.78-1.46-.21-3.78.59-4.77-.8-.12-.36-.03-.77.36-.95.71-.18.89-.98 1.1-1.55l-.12-14.41c-.24-.51-.8-.8-1.34-.83-.63.03-1.1.6-1.43 1.07-.66 1.19-.27 2.53-.36 3.93l.12 10.36c-.03.89.86 1.16 1.25 1.7.12.54-.24.98-.66 1.25-2.47.45-4.59.12-7.09.21-.57-.12-1.22-.15-1.55-.75-.12-.24-.21-.65.06-.86.54-.27 1.07-.69 1.19-1.31l.15-.77-.15-13.85c-.15-1.1-1.85-.98-1.55-2.17.8-.98 2.11-1.16 3.22-1.67 1.01-.33 2-.74 2.95-1.25.71-.03 1.61-.15 1.94.59 0 .54-.21 1.28.36 1.55.83-.06.98-1.07 1.67-1.49 1.34-1.13 3.63-.89 5.09-.21.71.42.98 1.13 1.52 1.7.95 0 1.07-1.19 1.76-1.64 1.31-.83 3.42-.6 4.68.21 2.26 1.85 2.26 4.82 2.92 7.42.54 3.48 1.01 7 .95 10.72.12.71.09 1.88 1.01 2.11l.21.21.15-.3-.27-26.53c-.03-1.01-.68-1.82-1.34-2.47-.12-.33 0-.65.21-.89 1.46-1.4 3.45-1.49 5.15-2.41.55-.72 1.8-.83 2.33-.15m14.86 15.28c-.45 2.11-.33 3.99.09 6.04.15.27.24.75.66.72.8-.48 1.79-.65 2.44-1.46 1.34-2.11-.24-4.41-1.25-6.25-.77-.51-1.67.2-1.94.95m-12.48-.72c-.42.12-.71.51-.92.86-1.4 2.98-1.52 6.19-1.16 9.62.33 1.43.42 2.98 1.52 4.05.33.21.74-.09 1.04-.3 2.47-3.78 1.73-9.44.36-13.52-.24-.23-.36-.8-.84-.71M158.61 5.38l.09 1.34.27 27.84c0 .33.24.63.54.75.3.12.8.15.86.59.09.48-.03.95-.3 1.31-1.61.89-3.33 1.43-5.03 2.03-.8.12-1.64.71-2.41.18-.45-.36.33-1.04-.39-1.25-.72.45-1.22 1.37-2.06 1.58-1.85.36-3.69-.42-5.06-1.67-2.95-3.37-2.74-8.64-2.09-12.98.33-2.95 1.46-5.69 3.45-7.86.95-.92 2.29-1.19 3.63-.98.71.12 1.13.69 1.73 1.07.15-.03.3-.12.33-.27l-.03-6.52c-.21-1.22-2.89-1.52-1.49-3.13.54-.33 1.31-.06 1.88-.36 1.7-.95 3.57-1.55 5.33-2.41.34.11.66.35.75.74m-8.54 14.44c-.54.15-.66.71-.86 1.13-.71 2.68-1.31 5.69-.89 8.61.39 1.67.48 3.48 1.88 4.74.33.15.77.18 1.01-.18 1.76-3.34 1.55-7.65.71-11.35-.42-1.07-.6-2.5-1.85-2.95"/><path d="M139.58 19.05c.72 1.13 1.1 2.35 1.37 3.66.71 4.2 1.34 8.52 1.58 12.84.03.54.15 1.07.45 1.52.36.3.89.36.89.89 0 .51-.3.86-.71 1.07-2.14.39-4.61.18-6.88.18-.48-.09-1.01-.36-1.19-.86-.09-.36-.03-.83.39-.98.89-.36.83-1.37 1.01-2.14.06-4.29-.89-8.61-2.08-12.63-.18-.48-.51-1.01-1.01-1.28-.39-.12-.83.06-.95.39l-.12.54.18 13.88c-.03.95.95 1.13 1.28 1.85.09.51-.39.89-.74 1.1-2.12.39-4.76.21-6.94.15-.48-.09-1.01-.42-1.16-.92-.21.15-.54.54-.8.77-.8.65-1.82.71-2.77.65-1.1-.24-1.88-1.01-2.77-1.76h-.54c-1.67 1.61-4.14 2.53-6.34 1.55-1.85-.57-3.54-2.32-3.78-4.29-.48-2.62-.3-5.6 1.91-7.3 1.73-1.88 3.96-2.59 6.16-3.34.48-.95.39-2.26.09-3.28-.3-.62-.51-1.31-1.22-1.64l-2.03-.18c-.21.03-.45.12-.51.36.21.54.92.6 1.07 1.22.18.89.18 2.09-.54 2.77-1.04.66-2.71.95-3.78.15-.92-.74-1.16-1.79-1.16-2.92-.03-1.82 1.58-3.13 3.07-3.72 2.14-.71 4.44-.62 6.76-.36 1.52.18 2.89 1.16 3.54 2.59.8 2.14 1.04 4.56 1.31 6.91.21 2.68.33 5.54.48 8.25.06.3.21.57.51.69.48-.06 1.1 0 1.16.57.21.48.33 1.04.33 1.52.45-.06.95-.42 1.1-.89l.27-.89-.17-14.04c-.09-1.16-3.01-1.67-.95-2.83 1.67-.8 3.43-1.43 5.06-2.32.54-.06 1.19-.06 1.64.3.33.42.09 1.01.48 1.4.54-.21.54-.8.95-1.16.74-.65 1.7-1.07 2.77-.77 1.34.47 2.56 1.48 3.33 2.73m-24.36 8.69c-2.15 1.22-1.55 3.93-1.61 5.96.21.8.45 1.85 1.4 2.14.74.24 1.52 0 1.97-.6.09-2.44-.15-5.06-.36-7.62-.26-.59-1.04-.23-1.4.12M190.06 21.42c0-.99.07-1.96.21-2.9-2.31-1.75-5.63-2.78-9.54-2.78-2.76.44-5.19 1.66-7.36 3.52l1.47-9.29h16.36l1.96-4.08V3.33h-20.94l-2.62 18.58 1.53 1.28 1.8-.77c2.29-1.02 3.6-1.33 5.4-1.33 3.49 0 5.62 2.55 5.62 6.74 0 2.3-.65 4.29-1.8 5.41h-12.49v6.64h6.82l2.78-.02c5.27-1.24 12.47-7.92 13.07-9.24a19.666 19.666 0 0 1-2.27-9.2zM227.21 8.6c0-1.07.87-1.87 1.9-1.87 1.02 0 1.89.79 1.89 1.87s-.87 1.88-1.89 1.88c-1.03-.01-1.9-.8-1.9-1.88m1.9 1.56c.85 0 1.51-.66 1.51-1.56 0-.89-.67-1.55-1.51-1.55-.85 0-1.52.67-1.52 1.55 0 .9.67 1.56 1.52 1.56m-.39-.48h-.33V7.53h.82c.51 0 .76.19.76.61 0 .39-.24.55-.56.59l.61.95h-.37l-.57-.93h-.38v.93zm.39-1.21c.28 0 .53-.02.53-.35 0-.27-.24-.32-.47-.32h-.45v.67h.39z"/><path d="m211.84 8.69.98-.21s-1.49-3.33-2.11-5.03c.54-.03 1.04 0 1.52.12.75 1.26 2.08 3.75 2.08 3.75s2.32-1.31 3.51-1.93c.36.06.72.3.98.57l-3.57 3.16 1.05 2.95s2.52-3.55 3.77-5.25c.45.06.8.45 1.07.77-.5.92-1.28 1.79-1.67 2.68 1.52.12 3.04.06 4.53.18.39.45.83.95 1.01 1.52l-3.78.3-1.8 3.12 2.45-.54s1.91-.79 3.91-1.56c.36.48.57.98.71 1.55l-4.08 1.64-3.63.77c-.54.6-.83 1.28-1.25 1.91 3.25-.6 6.4-1.64 9.68-2.29 1.46 4.91.63 10.45-2.03 14.59-8.84 2.23-18.23-.6-27.37.63l-2.65.33c-1.88-2.29-2.83-5.09-3.33-8.01-.45-3.19-.09-6.64 1.07-9.47.26-.04 4.3-.4 4.3-.4l-2.48-3c.09-.51.53-.89.86-1.31 1.29 1.35 3.72 4.11 3.72 4.11l1.37-.12-4.26-4.85c.42-.66 1.13-1.34 1.76-1.79l3.6.65s-.03-1.94.03-3.01c.74-.42 1.58-.77 2.38-.92.72 1.28 1.25 2.65 2.03 3.93.92-1.49 1.73-3.16 2.56-4.76.09-.06.27-.12.39-.03l2.69 5.25zm-2.68-1.73-1.91 3.63 1.14 3.73 1.67-1.17.44-3.12c-.45-1.05-.86-2.12-1.34-3.07m-5.57.21v1.82l.89.21c-.2-.72-.56-1.38-.89-2.03m-4.67 2.17v.12c.95.95 2.86 3.08 2.86 3.08v-2.4l-2.86-.8zm14.51.85-.83.55.18.62.76-.7-.11-.47zm-9.75.79.12 3.36 1.28-2.92-1.4-.44zm15.56 1.41-1.21.14-1.89 2.99 1.22-.04 1.88-3.09zm-7.43 2.19.15 3.45 2.59-3.31c.23-.25.31-.69.31-.69l-.49-1.56-2.56 2.11zm-5.6-.44-.8 1.61 1.55 1.76c-.21-1.17-.45-2.27-.75-3.37m3.64 1.45-.99.48.06 1.38.82.28.11-2.14zm-10.35.18-1.39 2.15 2.83 1.1 2.35-2.05-.89-.95-2.9-.25zm-5.82.43 2.46 1.14.77-1.28-3.23.14zm21.17 1.6-1.31 2.14 1.49-.14 1.33-2.2-1.51.2zm-10.01.44-4.47 3.66-2.14.1s.87-.97 1.17-1.51c-.77-.36-1.64-.73-2.45-.96l-1.58 2.11c-.51.06-1.07 0-1.46.18-.12 1.76.27 3.4.59 5.03.15.42.27 1.13.89 1.07 4.41 0 8.55.68 12.9 1.13v-6.67c-.21-.45-.79-1.25-1.09-1.61l-2.01 1.19-3.68.04c-.03-.06 3.04-1.76 4.44-2.68-.39-.39-.63-.84-1.11-1.08m-10.69.09c-.27.6-.24 1.46-.18 2.08.36-.57 1.21-1.69 1.21-1.69l-1.03-.39zm31.45.9-1.58.45c.42.83 1.37 2.5 1.37 2.5l-1.91.06-1.7-2.03c-.83.18-2.73.6-2.73.6l.76 1.42-1.37.16-1.07-1.38s-3.9 1.13-5.81 1.73l-.12.18c.03 2.14.18 4.26.42 6.31l.18.45c3.63.69 7.3.86 11.14 1.07l.36-.15c1.04-1.49 1.64-3.16 2.2-4.85.6-1.97.75-4.68-.14-6.52"/><path d="M224.5 32.54c-1.1 1.49-2.53 3.01-4.14 4.08-8.34-.12-15.99-2.38-24.12-2.77-.27-.24-.54-.51-.63-.86 6.34-1.1 12.77-.48 19.06-.09 3.28.15 6.73-.06 9.86-.65l-.03.29zM212.02 36.5c2.41.27 4.85.48 7.27.77-5.03 3.51-13.05 3.57-18.26.51-1.43-.89-2.95-1.85-4.08-3.19.06-.18.36-.03.54-.12l3.45.3 11.08 1.73z"/></g></svg>