<?xml version="1.0" encoding="UTF-8"?>
<svg fill="none" viewBox="0 0 174 47" xmlns="http://www.w3.org/2000/svg">
<g clip-path="url(#a)" fill="#000">
<path d="m109.43 3.6787c0-0.82352 0.663-1.4303 1.45-1.4303s1.445 0.6068 1.445 1.4303-0.663 1.4412-1.445 1.4412-1.45-0.6068-1.45-1.4412zm1.45 1.1974c0.647 0 1.154-0.50928 1.154-1.1974s-0.512-1.1919-1.154-1.1919c-0.641 0-1.164 0.50928-1.164 1.1919s0.506 1.1974 1.164 1.1974zm-0.302-0.36842h-0.248v-1.6524h0.626c0.388 0 0.582 0.14629 0.582 0.47136 0 0.29798-0.183 0.42801-0.426 0.4551l0.469 0.72599h-0.28l-0.432-0.71515h-0.285v0.71515h-6e-3zm0.297-0.93187c0.21 0 0.399-0.01625 0.399-0.27089 0-0.20588-0.184-0.24381-0.362-0.24381h-0.339v0.50928h0.296l6e-3 0.00542z"/>
<path d="m16.507 1.2732c0.5661 2.1942 1.0675 4.4102 1.4772 6.6694 0.0701 0.4551-0.0917 0.77475-0.3612 1.0727-0.2264 0.27631-0.5014 0.39008-0.8194 0.43343-0.4529 0-0.8626-0.13545-1.1807-0.50387-0.9542-1.4141-1.2507-3.1098-2.4098-4.3885-0.2965-0.22755-0.7062-0.39009-1.0674-0.20588l-0.2749 0.27631 0.2048 20.447c0.0917 0.6393 0.6793 1.1648 1.2939 1.2786 0.5013-0.1354 0.8841-0.661 0.9758-1.1432l0.07-1.1431-0.1132-9.9635c-0.1833-0.7314-1.1375-0.7531-1.2723-1.4411 0.1133-0.3901 0.5445-0.661 0.8842-0.8236 1.2938-0.5743 2.6577-0.9373 3.9085-1.5982 0.3881-0.0217 0.8625-0.0921 1.2021 0.1137l0.2265 0.3197 0.1347 14.303c0.1133 0.4822 0.248 1.1431 0.8626 1.2569 0.248 0.2059 0.1833 0.5689 0.0431 0.8235-0.2965 0.4551-0.841 0.4822-1.2722 0.5256h-4.728c-0.3881 0.0216-0.6846-0.2276-0.9542-0.4822-1.0243 0.8018-2.7763 0.4822-3.957 0.5472-1.3855-0.1626-3.116 0.3901-4.3398-0.4551-0.20485-0.1571-0.16173-0.4822-0.13477-0.661 0.22642-0.4551 0.91108-0.298 1.0458-0.8669l0.20486-0.6393-0.07008-15.538-0.09165-4.8652c-0.16173-0.22756-0.40972-0.34133-0.70622-0.31966-0.52293 0.04334-0.841 0.59597-1.1159 0.98064-0.61457 1.0944-1.0243 2.308-1.5688 3.4295-0.18329 0.39008-0.50136 0.6393-0.88412 0.80184-0.5445 0.18421-1.0674-0.04334-1.434-0.43343-0.63614-0.80184-0.070083-1.8529 0-2.7198l1.0836-4.9248c0.13478-0.24922 0.27494-0.59597 0.56606-0.66098 0.86256-0.31966 1.0458 0.88853 1.8653 0.66098l10.593-0.0921c0.6361-0.04335 1.0243-1.0511 1.7736-0.56888l0.3396 0.50386v-0.00542z"/>
<path d="m81.415 1.5495 0.2264 0.31965 0.0701 3.3808 0.1564 19.623c0.0916 0.5472 0.2965 1.0944 0.8841 1.3491 0.1833 0.2059 0.1833 0.5472 0.1132 0.8235-0.248 0.661-0.9758 0.7531-1.6119 0.7531l-4.4368-0.0217c-0.3612-0.0704-0.7709-0.2059-0.9758-0.5743-0.1563-0.2763-0.1563-0.6176-0.0216-0.9156 0.4529-0.298 0.9543-0.596 0.9974-1.2082l-0.0216-9.1399c-0.0701-0.7531 0.0216-1.8259-0.0701-2.5356-0.3396 0.8235 0.0486 1.9884-0.8625 2.4651-0.3882 0.1626-0.7979 0-1.116-0.1842-0.4097-0.3901-0.593-0.9156-0.7277-1.4411-0.2534-0.2493-0.5931-0.0705-0.841 0.0433-3.4557 2.4651-1.957 7.2437-2.2535 10.966-0.0485 0.7531 0.9327 0.4822 1.0243 1.1648 0 0.3197-0.1348 0.596-0.3181 0.8235-0.318 0.3197-0.841 0.298-1.2507 0.3414l-4.8896-0.0434c-0.3181-0.0704-0.593-0.3196-0.7062-0.6176-0.0917-0.2276-0.0917-0.5472 0.0916-0.7531 0.2965-0.298 0.8194-0.2276 0.9542-0.7097l0.0216-1.1215-0.0917-10.305c-0.0485-0.8669-1.3423-0.8019-1.2291-1.7337l0.6146-0.5472c1.407-0.6177 2.8895-1.0728 4.275-1.7121 0.523-0.07043 1.0459-0.07043 1.3424 0.4118 0.1348 0.753-0.0701 1.647 0.1563 2.4651 0.0432 0.0921 0.1833 0.0433 0.248 0.0217 0.8626-1.3274 1.9785-2.8769 3.7036-2.7631 0.6577 0.0433 1.4071 0.0921 1.7737 0.7097l0.0916-0.2059-0.0701-3.8629-0.0431-0.02167c0.0701-0.363-0.0216-0.84519-0.0916-1.2569 0.0431-0.84519-1.2939-0.88853-0.8842-1.8042 1.2292-1.4412 3.2724-1.3003 4.7064-2.4218 0.3881-0.0921 0.7709 0.02167 1.0458 0.22755"/>
<path d="m46.724 1.4358 0.1563 0.41175 0.0701 8.7716c0.3397 0.6393 0.7278-0.3685 1.1591-0.4118 1.2723-0.43344 2.7494 0.0433 3.6605 1.0727 1.7736 1.8963 2.0486 4.3181 2.4798 6.7886l0.0701-0.0704c0.275-2.8336 0.841-5.8296 3.4125-7.3791 1.3424-0.82356 3.3209-0.73146 4.6147 0.0216 1.5904 1.4141 2.8627 3.1749 2.798 5.3475 0 0.6176-0.0216 1.1431-0.2049 1.6687-1.8868 0.9156-3.9085 1.5766-5.8438 2.4001-0.4529 0.3413-0.0701 0.9156 0 1.3003 0.318 0.8018 0.7278 1.9179 1.7305 2.0804 0.5445 0.1842 1.3423 0.5256 1.8653 0.0434 0.593-0.5472 0.1347-2.1726 1.4555-1.7608 0.523 0.1137 0.9974 0.39 1.2723 0.8885 0.3396 1.5332-0.3396 2.9473-1.0674 4.1122-1.3424 1.1648-3.2077 1.3707-4.9328 1.1431-3.364-0.688-4.5715-4.2747-5.0244-7.2437-0.2749 2.7198-0.4313 6.0084-3.4125 7.1029-1.8168 0.5038-3.8653 0.1354-5.1376-1.1649-0.1618-0.2275-0.2049-0.5959-0.5229-0.7097-0.7494 0.0216-0.7494 0.8668-1.1376 1.3274-0.4798 0.2979-0.9757 0.753-1.5903 0.5742-0.2264-0.1137-0.3666-0.3684-0.5014-0.5472-0.6361 0.7098-1.5687 0.4822-2.4313 0.5256l-3.4341-0.0434c-0.3881-0.0704-0.7978-0.3196-0.8841-0.7314-0.0701-0.4117 0.3612-0.5959 0.6361-0.7314 0.3181-0.5472 0.523-1.1432 0.4529-1.8529-0.1132-3.0178-0.3666-6.0788-0.841-8.9557-0.1833-0.596-0.3396-1.2787-0.8626-1.6687-0.3881-0.1355-0.6577 0.1625-0.911 0.3413l-0.2966 0.4822 0.0216 10.581c0.1348 0.5038 0.3396 1.0727 0.9111 1.2569 0.1348 0.1842 0.1617 0.4605 0.0701 0.661-0.6362 0.9373-1.957 0.4822-2.8411 0.596-1.1159-0.1626-2.8896 0.4551-3.6389-0.6177-0.0917-0.2763-0.0216-0.5959 0.2749-0.7314 0.5445-0.1354 0.6793-0.7531 0.841-1.1865l-0.0916-11.058c-0.1833-0.3901-0.6146-0.6176-1.0243-0.6393-0.4798 0.0217-0.841 0.4551-1.089 0.8235-0.5014 0.9157-0.2049 1.9396-0.2749 3.0178l0.0916 7.9534c-0.0216 0.6881 0.6577 0.894 0.9542 1.3057 0.0917 0.4118-0.1833 0.7531-0.5013 0.959-1.8869 0.3413-3.4988 0.0921-5.4126 0.1625-0.4313-0.0921-0.9327-0.1137-1.1806-0.5743-0.0917-0.1842-0.1618-0.5038 0.0431-0.6609 0.4097-0.2059 0.8194-0.5256 0.9111-1.0078l0.1132-0.5959-0.1132-10.624c-0.1132-0.8452-1.4071-0.7531-1.1807-1.6687 0.6146-0.7531 1.6119-0.8939 2.4529-1.2786 0.771-0.2492 1.5257-0.5689 2.2535-0.959 0.5445-0.0216 1.2291-0.1137 1.4771 0.4551 0 0.4118-0.1617 0.9807 0.275 1.1866 0.6361-0.0488 0.7493-0.8236 1.2722-1.1432 1.0243-0.86687 2.7764-0.6881 3.8869-0.1625 0.5445 0.3196 0.7494 0.8668 1.1591 1.3002 0.7278 0 0.8194-0.9156 1.3424-1.2569 1.0027-0.6393 2.6146-0.4551 3.5688 0.1625 1.7305 1.4141 1.7305 3.7004 2.2265 5.6888 0.4097 2.671 0.7709 5.3691 0.7278 8.2243 0.0916 0.5472 0.0701 1.4412 0.7709 1.62l0.1563 0.1625 0.1132-0.2276-0.2048-20.355c-0.0216-0.77475-0.5229-1.3924-1.0243-1.8962-0.0916-0.24922 0-0.50386 0.1563-0.68807 1.116-1.0727 2.6362-1.1432 3.9355-1.8529 0.4097-0.50386 1.3639-0.59596 1.7736-0.07043m11.343 11.719c-0.3397 1.6199-0.248 3.0611 0.0701 4.6377 0.1132 0.2059 0.1833 0.5743 0.5013 0.5472 0.6146-0.363 1.364-0.5039 1.8653-1.1215 1.0243-1.6199-0.1833-3.3808-0.9542-4.8002-0.593-0.3901-1.2723 0.1625-1.4771 0.7314m-9.5259-0.5472c-0.3181 0.0921-0.5445 0.3901-0.7063 0.661-1.0674 2.2863-1.159 4.7514-0.8841 7.3791 0.248 1.0944 0.3181 2.2863 1.1591 3.1098 0.248 0.1572 0.566-0.0704 0.7979-0.2275 1.8868-2.904 1.3208-7.2437 0.2749-10.375-0.1833-0.1842-0.2749-0.6177-0.6361-0.5472"/>
<path d="m121.09 1.5712 0.07 1.0294 0.205 21.363c0 0.2492 0.184 0.4822 0.41 0.5743s0.615 0.1138 0.658 0.4551c0.07 0.363-0.022 0.7314-0.227 1.0077-1.229 0.6827-2.544 1.0944-3.844 1.5549-0.614 0.0921-1.25 0.5472-1.843 0.1355-0.34-0.2763 0.248-0.8019-0.297-0.959-0.544 0.3413-0.932 1.0511-1.569 1.2082-1.412 0.2763-2.819-0.3197-3.865-1.2786-2.248-2.5843-2.092-6.6261-1.59-9.9635 0.248-2.2646 1.116-4.3668 2.636-6.0301 0.728-0.7097 1.752-0.91558 2.776-0.75304 0.545 0.09214 0.863 0.52554 1.321 0.82354 0.113-0.0217 0.227-0.0921 0.248-0.2059l-0.021-5.0061c-0.157-0.9373-2.205-1.1648-1.138-2.4001 0.41-0.24922 1.003-0.04334 1.434-0.27631 1.294-0.73141 2.728-1.1865 4.07-1.8529 0.248 0.092102 0.502 0.27631 0.572 0.56887m-6.523 11.08c-0.41 0.1137-0.502 0.5472-0.658 0.8668-0.545 2.0588-1.003 4.3614-0.685 6.6044 0.297 1.2786 0.361 2.671 1.434 3.6354 0.248 0.1138 0.593 0.1354 0.771-0.1355 1.342-2.5572 1.181-5.8729 0.545-8.7065-0.318-0.8235-0.453-1.9179-1.407-2.2592"/>
<path d="m106.56 12.06c0.544 0.8669 0.841 1.8042 1.045 2.8119 0.545 3.2236 1.025 6.5339 1.208 9.8497 0.022 0.4117 0.113 0.8235 0.34 1.1648 0.275 0.2276 0.679 0.2763 0.679 0.6881 0 0.3901-0.227 0.661-0.545 0.8235-1.638 0.298-3.52 0.1354-5.25 0.1354-0.362-0.0704-0.771-0.2763-0.912-0.6609-0.07-0.2764-0.021-0.6394 0.297-0.7531 0.679-0.2763 0.636-1.0511 0.771-1.6471 0.043-3.2886-0.685-6.6043-1.59-9.6871-0.135-0.3684-0.389-0.7748-0.771-0.9806-0.297-0.0921-0.637 0.0433-0.728 0.2979l-0.092 0.4118 0.135 10.646c-0.022 0.7314 0.728 0.8669 0.976 1.4141 0.07 0.3901-0.297 0.688-0.566 0.8452-1.6176 0.2979-3.6392 0.1571-5.2943 0.1137-0.3666-0.0704-0.7763-0.3196-0.8841-0.7097-0.1617 0.1138-0.4097 0.4118-0.6146 0.596-0.6145 0.5038-1.3855 0.5472-2.1132 0.5038-0.841-0.1842-1.434-0.7747-2.1133-1.349h-0.4097c-1.2723 1.2352-3.1592 1.945-4.8411 1.1865-1.4071-0.4334-2.7063-1.7825-2.8896-3.2887-0.3612-2.01-0.2264-4.2963 1.4555-5.5966 1.3208-1.4412 3.0244-1.9884 4.7064-2.5572 0.3612-0.7315 0.2965-1.7338 0.0701-2.5139-0.2264-0.4768-0.3882-1.0023-0.9327-1.257l-1.5472-0.1354c-0.1563 0.0216-0.3396 0.0921-0.3881 0.2763 0.1563 0.4117 0.7062 0.4551 0.8194 0.9373 0.1348 0.688 0.1348 1.5982-0.4097 2.1238-0.7979 0.5038-2.0702 0.7314-2.8896 0.1138-0.7062-0.5689-0.8841-1.3708-0.8841-2.2376-0.0216-1.3924 1.2076-2.4001 2.3397-2.8552 1.6388-0.5472 3.3855-0.4768 5.1592-0.2764 1.159 0.1355 2.2049 0.894 2.7062 1.9884 0.6146 1.647 0.7979 3.4945 1.0028 5.2987 0.1563 2.0588 0.248 4.2476 0.3612 6.328 0.0431 0.2276 0.1563 0.4335 0.3881 0.5256 0.3612-0.0434 0.841 0 0.8841 0.4334 0.1618 0.363 0.248 0.8019 0.248 1.1648 0.3397-0.0433 0.7278-0.3196 0.841-0.6826l0.2049-0.6827-0.1132-10.76c-0.0701-0.894-2.2966-1.2787-0.7278-2.1726 1.2723-0.6176 2.6146-1.0944 3.8653-1.7825 0.4098-0.0487 0.9114-0.0487 1.2504 0.2276 0.248 0.3196 0.065 0.7747 0.362 1.0727 0.409-0.1625 0.409-0.6176 0.727-0.8885 0.566-0.5039 1.294-0.82354 2.114-0.59599 1.024 0.36839 1.957 1.1432 2.544 2.1021m-18.593 6.6694c-1.6389 0.9373-1.1806 3.0178-1.2292 4.5727 0.1564 0.6177 0.3397 1.4141 1.0675 1.647 0.566 0.1843 1.159 0 1.504-0.4551 0.0647-1.8745-0.1132-3.8846-0.2749-5.8512-0.2048-0.4551-0.7979-0.1843-1.0674 0.0921"/>
<path d="m145.1 13.875c0-0.7585 0.054-1.5008 0.162-2.2268-1.763-1.3382-4.302-2.1292-7.284-2.1292-2.102 0.33591-3.962 1.2732-5.623 2.7035l1.127-7.1299h12.491l1.499-3.1315v-1.9613h-15.99l-2 14.254 1.165 0.9806 1.374-0.5851c1.747-0.7856 2.75-1.0185 4.124-1.0185 2.664 0 4.286 1.9558 4.286 5.1686 0 1.7608-0.501 3.2886-1.374 4.1501h-9.537v5.0928h5.202l2.124-0.0163c4.027-0.9535 9.521-6.0734 9.979-7.0865-1.105-2.113-1.731-4.5131-1.731-7.0649h6e-3z"/>
<path d="m161.72 4.1067 0.75-0.16253s-1.138-2.5572-1.612-3.8629c0.409-0.021672 0.798 0 1.159 0.092104 0.571 0.96438 1.59 2.8769 1.59 2.8769s1.774-1.0023 2.685-1.4845c0.275 0.04335 0.544 0.22755 0.749 0.43343l-2.722 2.4272 0.798 2.2647s1.924-2.7252 2.878-4.0309c0.34 0.04335 0.615 0.34133 0.82 0.59597-0.383 0.70974-0.976 1.3707-1.272 2.0588 1.159 0.0921 2.318 0.04876 3.455 0.13544 0.297 0.34133 0.636 0.73142 0.771 1.1648l-2.889 0.22755-1.375 2.3893 1.871-0.41176s1.455-0.6068 2.981-1.1974c0.275 0.36841 0.431 0.75308 0.544 1.1865l-3.116 1.2569-2.771 0.596c-0.409 0.4551-0.636 0.9806-0.954 1.4628 2.48-0.4551 4.89-1.2569 7.391-1.7608 1.116 3.7709 0.48 8.0185-1.547 11.193-6.75 1.7121-13.914-0.4551-20.89 0.4822l-2.022 0.2492c-1.434-1.7608-2.162-3.9062-2.544-6.1438-0.34-2.4435-0.07-5.0928 0.819-7.2654 0.199-0.0325 3.283-0.30881 3.283-0.30881l-1.892-2.2972c0.07-0.39009 0.41-0.68807 0.658-1.0077 0.986 1.0402 2.841 3.1532 2.841 3.1532l1.045-0.09211-3.25-3.7221c0.318-0.50387 0.868-1.0294 1.342-1.3707l2.749 0.50386s-0.021-1.4845 0.022-2.308c0.566-0.31966 1.202-0.59055 1.817-0.70974 0.544 0.98063 0.954 2.0317 1.547 3.0178 0.706-1.1432 1.315-2.4218 1.957-3.6571 0.07-0.048761 0.205-0.092104 0.296-0.021672l2.044 4.0417-6e-3 0.00541zm-2.043-1.3274-1.461 2.7848 0.868 2.8606 1.278-0.89936 0.339-2.3893c-0.339-0.80185-0.657-1.6199-1.024-2.3514m-4.253 0.16254v1.3924l0.679 0.16254c-0.156-0.54721-0.431-1.0511-0.679-1.5549zm-3.569 1.6687v0.09211c0.728 0.73141 2.183 2.3622 2.183 2.3622v-1.8421l-2.183-0.61764v0.00542zm11.084 0.65015-0.636 0.42259 0.134 0.47677 0.583-0.54178-0.081-0.35758zm-7.445 0.6068 0.091 2.5789 0.981-2.2376-1.067-0.34132h-5e-3zm11.876 1.0782-0.922 0.10836-1.445 2.2972 0.933-0.02709 1.429-2.3784h5e-3zm-5.671 1.685 0.113 2.6494 1.978-2.5356c0.178-0.18963 0.238-0.53096 0.238-0.53096l-0.378-1.1973-1.951 1.6145zm-4.275-0.34133-0.615 1.2353 1.181 1.349c-0.162-0.89393-0.34-1.7391-0.566-2.5843zm2.776 1.1215-0.76 0.37384 0.043 1.0565 0.62 0.2167 0.092-1.647h5e-3zm-7.898 0.13545-1.062 1.6471 2.162 0.8397 1.795-1.5711-0.679-0.73145-2.21-0.18421h-6e-3zm-4.442 0.32507 1.876 0.87229 0.588-0.98064-2.464 0.10835zm16.157 1.2299-1.003 1.647 1.138-0.1084 1.019-1.6849-1.154 0.1463zm-7.639 0.3413-3.413 2.8119-1.639 0.0704s0.664-0.7477 0.89-1.1594c-0.593-0.2763-1.256-0.5581-1.865-0.7369l-1.208 1.62c-0.388 0.0433-0.819 0-1.11 0.1354-0.092 1.3491 0.204 2.606 0.452 3.863 0.114 0.3196 0.205 0.8668 0.68 0.8235 3.364 0 6.523 0.5255 9.844 0.8668v-5.1198c-0.162-0.3414-0.604-0.959-0.831-1.2353l-1.536 0.9156-2.82 0.0217c-0.021-0.0488 2.319-1.3491 3.386-2.0588-0.296-0.298-0.48-0.6393-0.841-0.8235m-8.162 0.0704c-0.205 0.4551-0.183 1.1215-0.135 1.5983 0.275-0.4334 0.922-1.3003 0.922-1.3003l-0.787-0.298zm24.006 0.6881-1.207 0.3413c0.318 0.6393 1.045 1.9179 1.045 1.9179l-1.455 0.0488-1.294-1.5549c-0.636 0.1354-2.081 0.4605-2.081 0.4605l0.582 1.089-1.046 0.1246-0.814-1.0619s-2.975 0.8668-4.431 1.3274l-0.092 0.1354c0.022 1.647 0.135 3.267 0.318 4.8436l0.135 0.3413c2.777 0.5255 5.569 0.661 8.502 0.8235l0.275-0.1138c0.798-1.1431 1.251-2.4217 1.682-3.722 0.453-1.5062 0.566-3.5867-0.113-5.0007"/>
<path d="m171.38 22.408c-0.841 1.1431-1.935 2.308-3.159 3.1315-6.367-0.0921-12.21-1.8258-18.415-2.1238-0.205-0.1842-0.41-0.3901-0.48-0.661 4.841-0.8452 9.752-0.363 14.55-0.0704 2.501 0.1138 5.138-0.0434 7.526-0.5039l-0.022 0.2276z"/>
<path d="m161.86 25.448c1.844 0.2059 3.704 0.3684 5.548 0.596-3.844 2.6926-9.957 2.7414-13.936 0.3901-1.094-0.6827-2.248-1.4141-3.116-2.4435 0.049-0.1355 0.275-0.0217 0.41-0.0921l2.636 0.2275 8.458 1.3274v-0.0054z"/>
<path d="m5.9139 40.141h2.6524c0.49597 0 0.91107 0.0758 1.2507 0.2275 0.33968 0.1517 0.59298 0.3739 0.75478 0.661 0.1347 0.2276 0.1994 0.5093 0.1994 0.8398s-0.0647 0.5851-0.1887 0.8018c-0.2533 0.4443-0.69001 0.6827-1.3046 0.7043v0.2005c0.60379 0.0271 1.0351 0.2655 1.3046 0.7152 0.124 0.2167 0.1887 0.4822 0.1887 0.8018 0 0.3197-0.0647 0.6122-0.1994 0.8398-0.1672 0.2871-0.4151 0.5038-0.75478 0.661-0.33964 0.1517-0.75474 0.2275-1.2507 0.2275h-2.6524v-6.6856 0.0054zm2.426 2.7252c0.3612 0 0.60919-0.1084 0.74396-0.3251 0.0593-0.1084 0.08626-0.233 0.08626-0.3738 0-0.1517-0.02696-0.2818-0.08626-0.3847-0.12938-0.2059-0.37198-0.3034-0.74396-0.3034h-0.92186v1.387h0.92186zm0 2.6276c0.36659 0 0.61458-0.1029 0.74396-0.3034 0.0593-0.1083 0.08626-0.2329 0.08626-0.3792s-0.02696-0.2709-0.08626-0.3739c-0.13477-0.2167-0.38276-0.325-0.74396-0.325h-0.92186v1.3869h0.92186v-0.0054z"/>
<path d="m17.278 46.686c-0.4151-0.2113-0.7386-0.5147-0.965-0.9102s-0.3397-0.8669-0.3397-1.4087v-4.2259h1.5688v4.1555c0 0.3847 0.1078 0.6881 0.3235 0.9102 0.2156 0.2276 0.5067 0.3413 0.8733 0.3413s0.6577-0.1138 0.8734-0.3359c0.2156-0.2221 0.3234-0.5309 0.3234-0.9156v-4.1555h1.5688v4.2259c0 0.5364-0.1132 1.0023-0.3396 1.3978-0.2264 0.401-0.5499 0.7044-0.9704 0.9157s-0.9057 0.3196-1.4556 0.3196-1.0458-0.1029-1.4609-0.3142z"/>
<path d="m26.971 40.141h1.5472v6.6856h-1.5472v-6.6856z"/>
<path d="m34.109 40.141h1.5472v5.2553h2.6362v1.4358h-4.1834v-6.6911z"/>
<path d="m43.931 41.577h-1.9677v-1.4303h5.4934v1.4303h-1.9785v5.2553h-1.5472v-5.2553z"/>
<path d="m58.713 40.141h4.1834v1.4303h-2.6362v1.3111h2.4907v1.387h-2.4907v2.5627h-1.5472v-6.6911z"/>
<path d="m69.096 46.431c-0.5715-0.3792-0.9758-0.9048-1.2184-1.582-0.1455-0.4226-0.221-0.8777-0.221-1.3653s0.0701-0.9481 0.221-1.3653c0.2426-0.6664 0.6469-1.1919 1.2184-1.5766 0.5714-0.3847 1.2507-0.5743 2.0324-0.5743s1.4717 0.1896 2.0432 0.5743c0.5714 0.3847 0.9704 0.9102 1.2076 1.5766 0.1509 0.4063 0.2264 0.8614 0.2264 1.3653s-0.0755 0.9535-0.2264 1.3653c-0.2426 0.6664-0.647 1.1919-1.213 1.5766-0.5661 0.3847-1.2453 0.5743-2.0324 0.5743s-1.4718-0.1896-2.0432-0.5689h0.0054zm0.3342-2.0588c0.1348 0.3684 0.345 0.661 0.6416 0.8669 0.2965 0.2113 0.6469 0.3142 1.062 0.3142s0.7655-0.1029 1.0674-0.3088c0.2965-0.2059 0.5121-0.4984 0.6469-0.8723 0.0971-0.2817 0.1402-0.5743 0.1402-0.8885s-0.0485-0.6231-0.1402-0.8885c-0.1348-0.3685-0.3504-0.661-0.6469-0.8723s-0.6523-0.3197-1.0674-0.3197-0.7655 0.1084-1.062 0.3197c-0.2966 0.2113-0.5068 0.5038-0.6416 0.8723-0.097 0.2438-0.1401 0.5363-0.1401 0.8885s0.0485 0.6339 0.1401 0.8885z"/>
<path d="m79.792 40.141h2.7764c0.4582 0 0.8518 0.0813 1.186 0.2438 0.3343 0.1625 0.593 0.3955 0.7709 0.7043 0.1671 0.2926 0.248 0.6285 0.248 1.0023 0 0.3739-0.0808 0.6935-0.2372 0.9536-0.1348 0.2329-0.3342 0.4226-0.6038 0.5634-0.2695 0.1409-0.5822 0.233-0.9434 0.2872v0.1408l0.4259 0.1355 1.407 2.6547h-1.8167l-1.3478-2.6005h-0.3127v2.6005h-1.5472v-6.6856h-0.0054zm2.5662 2.8552c0.3665 0 0.6199-0.1192 0.7493-0.363 0.0647-0.1138 0.097-0.2438 0.097-0.3901s-0.0269-0.2817-0.0862-0.3792c-0.1402-0.233-0.3936-0.3522-0.7601-0.3522h-1.0189v1.4899h1.0189v-0.0054z"/>
<path d="m97.647 41.577h-1.9677v-1.4303h5.4935v1.4303h-1.9786v5.2553h-1.5472v-5.2553z"/>
<path d="m110.22 44.194h-2.501v2.6385h-1.548v-6.6856h1.548v2.6168h2.501v-2.6168h1.547v6.6856h-1.547v-2.6385z"/>
<path d="m117.36 40.141h4.183v1.4303h-2.636v1.2136h2.539v1.387h-2.539v1.2244h2.636v1.4358h-4.183v-6.6911z"/>
<path d="m133.42 40.141h2.652c0.496 0 0.911 0.0758 1.251 0.2275 0.339 0.1517 0.593 0.3739 0.754 0.661 0.135 0.2276 0.2 0.5093 0.2 0.8398s-0.065 0.5851-0.189 0.8018c-0.253 0.4443-0.69 0.6827-1.304 0.7043v0.2005c0.603 0.0271 1.035 0.2655 1.304 0.7152 0.124 0.2167 0.189 0.4822 0.189 0.8018 0 0.3197-0.065 0.6122-0.2 0.8398-0.167 0.2871-0.415 0.5038-0.754 0.661-0.34 0.1517-0.755 0.2275-1.251 0.2275h-2.652v-6.6856 0.0054zm2.425 2.7252c0.362 0 0.61-0.1084 0.744-0.3251 0.06-0.1084 0.087-0.233 0.087-0.3738 0-0.1517-0.027-0.2818-0.087-0.3847-0.129-0.2059-0.372-0.3034-0.744-0.3034h-0.921v1.387h0.921zm0 2.6276c0.367 0 0.615-0.1029 0.744-0.3034 0.06-0.1083 0.087-0.2329 0.087-0.3792s-0.027-0.2709-0.087-0.3739c-0.134-0.2167-0.382-0.325-0.744-0.325h-0.921v1.3869h0.921v-0.0054z"/>
<path d="m144.62 46.431c-0.571-0.3792-0.975-0.9048-1.218-1.582-0.145-0.4226-0.221-0.8777-0.221-1.3653s0.07-0.9481 0.221-1.3653c0.243-0.6664 0.647-1.1919 1.218-1.5766 0.572-0.3847 1.251-0.5743 2.033-0.5743s1.472 0.1896 2.043 0.5743 0.97 0.9102 1.208 1.5766c0.151 0.4063 0.226 0.8614 0.226 1.3653s-0.075 0.9535-0.226 1.3653c-0.243 0.6664-0.647 1.1919-1.213 1.5766s-1.246 0.5743-2.033 0.5743-1.472-0.1896-2.043-0.5689h5e-3zm0.335-2.0588c0.134 0.3684 0.345 0.661 0.641 0.8669 0.297 0.2113 0.647 0.3142 1.062 0.3142s0.766-0.1029 1.068-0.3088c0.296-0.2059 0.512-0.4984 0.647-0.8723 0.097-0.2817 0.14-0.5743 0.14-0.8885s-0.049-0.6231-0.14-0.8885c-0.135-0.3685-0.351-0.661-0.647-0.8723-0.297-0.2113-0.653-0.3197-1.068-0.3197s-0.765 0.1084-1.062 0.3197c-0.296 0.2113-0.507 0.5038-0.641 0.8723-0.097 0.2438-0.14 0.5363-0.14 0.8885s0.048 0.6339 0.14 0.8885z"/>
<path d="m155.32 40.141h1.547v5.2553h2.637v1.4358h-4.184v-6.6911z"/>
<path d="m164.59 40.141h2.652c0.755 0 1.396 0.1734 1.93 0.5201 0.534 0.3468 0.911 0.8344 1.132 1.4683 0.146 0.4063 0.221 0.8614 0.221 1.3544s-0.075 0.959-0.221 1.3653c-0.221 0.6285-0.598 1.1161-1.132 1.4628-0.534 0.3414-1.175 0.5147-1.93 0.5147h-2.652v-6.6856zm2.701 5.2553c0.355 0 0.663-0.0975 0.916-0.2871 0.259-0.1896 0.442-0.4497 0.555-0.7856 0.097-0.2492 0.14-0.531 0.14-0.8398s-0.048-0.6068-0.14-0.8614c-0.118-0.3251-0.307-0.5797-0.566-0.7694-0.258-0.1896-0.56-0.2817-0.905-0.2817h-1.149v3.8196h1.149v0.0054z"/>
<path d="m171.84 40.26h-0.432v-0.1517h1.014v0.1517h-0.426v1.1865h-0.162v-1.1865h6e-3z"/>
<path d="m172.62 40.108h0.264l0.394 1.1106 0.016 0.1138h0.027l0.016-0.1138 0.399-1.1106h0.259v1.3382h-0.156v-1.2245h-0.027l-0.022 0.1897-0.372 1.0348h-0.215l-0.378-1.0348-0.021-0.1897h-0.027v1.2245h-0.157v-1.3382z"/>
</g>
<defs>
<clipPath id="a">
<rect width="174" height="47" fill="#fff"/>
</clipPath>
</defs>
</svg>
