<?xml version="1.0" encoding="UTF-8"?>
<svg version="1.1" viewBox="0 0 21.468 24.81" xmlns="http://www.w3.org/2000/svg">
<path d="m1.468 16.829c0-3.9224 7.0302-5.019 10-5.019 2.9697 0 10 1.097 10 5.019 0 2.5861-3.3855 4.044-5.9147 4.5948l-0.3029-1.3489c1.4397-0.31318 4.8066-1.3997 4.8066-3.2458 0-2.8178-6.5829-3.6329-8.5882-3.6329-2.0045 0-8.5883 0.81436-8.5883 3.6329 0 2.3832 5.1004 3.4032 6.9345 3.5618l-1.8136-1.9649 1.0424-0.92603 3.3736 3.6551-3.3736 3.6551-1.0424-0.926 1.9314-2.0929c-2.7497-0.20621-8.4641-1.4918-8.4641-4.9623z" fill-opacity=".25"/>
<path d="m0 5.21h0.57c0.08 1.06 0.8 1.67 1.81 1.67 0.99 0 1.8-0.51 1.8-1.54 0-1.04-0.93-1.53-1.77-1.53h-0.62v-0.42h0.62c1.02 0 1.66-0.55 1.66-1.45 0-0.68-0.51-1.42-1.64-1.42-0.92 0-1.52 0.46-1.6 1.26h-0.57c0.08-1.09 0.91-1.76 2.18-1.76 1.3 0 2.22 0.68 2.22 1.79 0 0.7-0.42 1.58-1.5 1.78 1.09 0.18 1.61 1.03 1.61 1.85 0 1.18-1.02 1.94-2.43 1.94-1.27 0-2.24-0.85-2.34-2.17zm6.0212-2.09c0.06-1.87 1.08-3.1 2.68-3.1 1.08 0 1.79 0.68 2.01 1.61h-0.57c-0.18-0.68-0.69997-1.11-1.5-1.11-1.65 0-2.39 1.62-2 3.85 0.32-1.22 1.15-1.61 1.94-1.61 1.19 0 2.14 0.9 2.14 2.35 0 1.36-0.93997 2.27-2.2 2.27-1.8 0-2.5-1.83-2.5-4.26zm4.11 1.93c0-1.08-0.59997-1.78-1.62-1.78-0.92 0-1.56 0.72-1.56 1.78 0 1.11 0.61 1.82 1.57 1.82 1 0 1.61-0.73 1.61-1.82zm4.1512-5.05c-1.63 0-2.57 1.34-2.57 3.69s0.94 3.69 2.57 3.69c1.64 0 2.58-1.33 2.58-3.69 0-2.37-0.94-3.69-2.58-3.69zm-2.05 3.69c0-2.02 0.74-3.22 2.05-3.22 0.5 0 0.92 0.17 1.25 0.5l-2.73 5.15c-0.37-0.56-0.57-1.38-0.57-2.43zm2.05 3.22c-0.5 0-0.92-0.17-1.24-0.5l2.73-5.15c0.38 0.55 0.58 1.37 0.58 2.43 0 2.03-0.75 3.22-2.07 3.22zm5.9512-4.34c0.64 0 1.15-0.52 1.15-1.16 0-0.65-0.51-1.17-1.15-1.17s-1.15 0.52-1.15 1.17c0 0.64 0.51 1.16 1.15 1.16zm0-0.38c-0.43 0-0.78-0.34-0.78-0.78s0.35-0.79 0.78-0.79 0.77 0.35 0.77 0.79-0.34 0.78-0.77 0.78z" fill-opacity=".25"/>
</svg>
