<?xml version="1.0" encoding="UTF-8"?>
<svg viewBox="0 0 536 240" xmlns="http://www.w3.org/2000/svg">
<path d="M24.0927 153.073H4V129.509H69.323V153.073H49.2302V239.437H24.0927V153.073Z"/>
<path d="m120.35 196.26h-18.842v43.182h-25.138v-109.93h25.138v43.182h18.842v-43.182h25.138v109.93h-25.138v-43.182z"/>
<path d="m152.86 129.51h53.078v23.564h-27.962v19.64h26.388v23.563h-26.388v19.64h27.962v23.564h-53.078v-109.97z"/>
<path d="m237.81 127.04h34.386c14.229 0 23.715 4.139 28.415 12.396 2.522 4.398 3.772 9.852 3.772 16.342 0 5.454-1.164 10.154-3.449 14.142-3.881 6.597-10.521 9.896-19.942 9.896v3.923c5.347 0 9.551 0.884 12.633 2.674 3.083 1.789 5.52 4.182 7.309 7.222 2.307 3.988 3.449 8.839 3.449 14.595 0 6.489-1.25 11.944-3.772 16.342-4.7 8.278-14.186 12.396-28.415 12.396h-34.386v-109.93zm31.26 43.98c3.773 0 6.446-1.358 7.998-4.075 0.949-1.574 1.423-3.557 1.423-5.972 0-2.932-0.474-5.174-1.423-6.748-0.733-1.25-1.746-2.177-3.061-2.738-1.315-0.582-2.954-0.862-4.937-0.862h-6.123v20.416h6.123v-0.021zm0 42.406c1.983 0 3.643-0.28 4.937-0.863 1.315-0.582 2.328-1.487 3.061-2.738 0.949-1.573 1.423-3.815 1.423-6.747 0-2.415-0.474-4.398-1.423-5.972-1.573-2.717-4.247-4.075-7.998-4.075h-6.123v20.416h6.123v-0.021z"/>
<path d="m324.74 234.77c-4.98-3.342-8.71-8.473-11.232-15.393-3.148-8.688-4.721-21.149-4.721-37.383s1.573-28.695 4.721-37.383c2.522-6.899 6.252-12.03 11.232-15.393 4.98-3.342 11.599-5.023 19.856-5.023s14.897 1.681 19.877 5.023 8.71 8.473 11.232 15.393c3.148 8.688 4.721 21.149 4.721 37.383s-1.573 28.695-4.721 37.383c-2.522 6.898-6.252 12.029-11.232 15.393-4.98 3.341-11.599 5.023-19.877 5.023-8.279 0-14.897-1.682-19.856-5.023zm10.435-36.047c0.323 4.657 0.991 8.408 2.048 11.233 1.466 4.182 3.923 6.273 7.373 6.273 3.449 0 5.907-2.091 7.373-6.273 1.035-2.825 1.725-6.576 2.048-11.233 0.323-4.656 0.474-10.24 0.474-16.729s-0.151-12.073-0.474-16.73c-0.323-4.656-0.992-8.408-2.048-11.232-1.466-4.182-3.924-6.273-7.373-6.273-3.45 0-5.907 2.091-7.373 6.273-1.057 2.824-1.725 6.576-2.048 11.232-0.324 4.657-0.475 10.241-0.475 16.73s0.151 12.073 0.475 16.729z"/>
<path d="m388.4 127.04h25.116v86.364h26.388v23.564h-51.504v-109.93z"/>
<path d="m446.82 127.04h30.937c8.279 0 14.897 1.681 19.856 5.023 4.98 3.342 8.71 8.473 11.232 15.393 3.148 8.688 4.721 20.201 4.721 34.559s-1.573 25.87-4.721 34.558c-2.501 6.899-6.252 12.052-11.232 15.393-4.98 3.342-11.599 5.024-19.856 5.024h-30.937v-109.95zm30.937 86.364c3.45 0 5.907-2.091 7.373-6.273 1.682-4.722 2.523-13.087 2.523-25.138s-0.841-20.416-2.523-25.116c-1.466-4.182-3.923-6.273-7.373-6.273h-5.821v62.822h5.821v-0.022z"/>
<path d="m513.33 128.96h-3.73v-1.336h8.861v1.336h-3.73v10.284h-1.401v-10.284z"/>
<path d="m520.17 127.62h2.285l3.449 9.636 0.151 0.971h0.237l0.13-0.971 3.471-9.636h2.263v11.62h-1.358v-10.629h-0.237l-0.194 1.639-3.256 8.99h-1.897l-3.277-8.99-0.194-1.639h-0.215v10.629h-1.38v-11.62h0.022z"/>
<path d="m-6.1035e-5 5.312h34.386c14.229 0 23.715 4.1393 28.414 12.396 2.5224 4.398 3.7728 9.8524 3.7728 16.342 0 5.4543-1.1642 10.154-3.4494 14.142-3.8806 6.597-10.521 9.8955-19.942 9.8955v3.9237c5.3466 0 9.5506 0.8839 12.634 2.6733s5.519 4.1824 7.3084 7.2222c2.3068 3.9883 3.4494 8.839 3.4494 14.595 0 6.4892-1.2504 11.944-3.7728 16.342-4.6998 8.278-14.186 12.396-28.414 12.396h-34.386v-109.93zm31.26 43.98c3.7728 0 6.4461-1.3582 7.9983-4.0746 0.9486-1.5738 1.4229-3.5572 1.4229-5.9718 0-2.932-0.4743-5.1741-1.4229-6.7479-0.733-1.2504-1.7462-2.1774-3.0613-2.7379-1.3151-0.5821-2.9536-0.8624-4.937-0.8624h-6.1226v20.416h6.1226v-0.0216zm0 42.406c1.9834 0 3.6435-0.2803 4.937-0.8624 1.3151-0.582 2.3283-1.4875 3.0613-2.7379 0.9486-1.5738 1.4229-3.8159 1.4229-6.7479 0-2.4146-0.4743-4.398-1.4229-5.9718-1.5737-2.7164-4.247-4.0746-7.9983-4.0746h-6.1226v20.416h6.1226v-0.0216z"/>
<path d="m82.764 109.12c-5.9718-5.972-8.9469-14.143-8.9469-24.491v-79.315h25.138v79.315c0 2.932 0.7761 5.3251 2.3502 7.136 1.574 1.8325 3.557 2.738 5.972 2.738 2.414 0 4.376-0.9055 5.885-2.738s2.285-4.204 2.285-7.136v-79.315h25.116v79.315c0 10.262-2.975 18.411-8.947 24.426-5.971 6.015-14.078 9.033-24.339 9.033-10.262 0-18.541-2.975-24.491-8.947l-0.0216-0.021z"/>
<path d="m151.38 5.3121h25.116v109.93h-25.116v-109.93z"/>
<path d="m188.92 5.3121h25.137v86.364h26.388v23.564h-51.503v-109.93h-0.022z"/>
<path d="m251.09 28.876h-20.092v-23.564h65.323v23.564h-20.093v86.364h-25.138v-86.364z"/>
<path d="m328.2 2.8457h53.078v23.564h-27.962v19.64h26.388v23.564h-26.388v43.182h-25.116v-109.95z"/>
<path d="m402.55 110.58c-4.98-3.342-8.709-8.473-11.232-15.393-3.147-8.6882-4.721-21.149-4.721-37.383 0-16.234 1.574-28.695 4.721-37.383 2.523-6.8988 6.252-12.03 11.232-15.393 4.98-3.3416 11.599-5.0232 19.856-5.0232s14.897 1.6816 19.877 5.0232 8.71 8.4726 11.232 15.393c3.148 8.6882 4.722 21.149 4.722 37.383 0 16.234-1.574 28.695-4.722 37.383-2.522 6.8991-6.252 12.03-11.232 15.393-4.98 3.341-11.598 5.023-19.877 5.023s-14.897-1.682-19.856-5.023zm10.435-36.046c0.323 4.6567 0.991 8.4079 2.048 11.232 1.466 4.1824 3.924 6.2736 7.373 6.2736s5.907-2.0912 7.373-6.2736c1.035-2.8242 1.725-6.5754 2.048-11.232 0.324-4.6567 0.474-10.24 0.474-16.73s-0.15-12.073-0.474-16.73c-0.323-4.6567-0.992-8.4079-2.048-11.232-1.466-4.1824-3.924-6.2736-7.373-6.2736s-5.907 2.0912-7.373 6.2736c-1.057 2.8242-1.725 6.5754-2.048 11.232-0.324 4.6567-0.475 10.24-0.475 16.73s0.151 12.073 0.475 16.73z"/>
<path d="m466.69 2.8457h32.662c6.899 0 12.827 1.1857 17.743 3.5356 4.915 2.3499 8.731 5.7778 11.469 10.284 2.824 4.8076 4.247 10.844 4.247 18.066 0 5.5406-1.315 10.521-3.924 14.919-1.573 2.7164-3.772 5.0447-6.597 6.985-2.824 1.9403-6.079 3.3847-9.744 4.3118v3.4494l8.322 1.7247 14.444 46.631h-28.113l-13.97-46.006h-1.401v46.006h-25.138v-109.91zm30.312 44.756c1.876 0 3.643-0.4096 5.26-1.2504s2.846-1.9834 3.687-3.4494c1.035-1.7894 1.574-3.7728 1.574-5.9718s-0.475-3.9237-1.423-5.4975c-0.841-1.5738-2.07-2.8026-3.687-3.6865s-3.428-1.3367-5.411-1.3367h-5.174v21.192h5.174z"/>
</svg>
