<?xml version="1.0" encoding="UTF-8"?>
<svg viewBox="0 0 195 305" xmlns="http://www.w3.org/2000/svg">
<path d="m44.144 170.51h-13.157v-15.43h42.774v15.43h-13.157v56.552h-16.46v-56.552z"/>
<path d="m107.18 198.79h-12.338v28.276h-16.46v-71.982h16.46v28.276h12.338v-28.276h16.46v71.982h-16.46v-28.276z"/>
<path d="m128.46 155.08h34.756v15.43h-18.309v12.86h17.279v15.43h-17.279v12.861h18.309v15.429h-34.756v-72.01z"/>
<path d="m1.4226 230.67h22.517c9.3172 0 15.529 2.711 18.606 8.117 1.6517 2.88 2.4705 6.452 2.4705 10.701 0 3.572-0.7624 6.649-2.2588 9.261-2.541 4.32-6.889 6.479-13.058 6.479v2.57c3.501 0 6.2539 0.579 8.2726 1.75 2.0187 1.172 3.6139 2.739 4.7856 4.729 1.5106 2.612 2.2588 5.788 2.2588 9.558 0 4.249-0.8188 7.82-2.4705 10.7-3.0775 5.421-9.289 8.118-18.606 8.118h-22.517v-71.983zm20.47 28.799c2.4705 0 4.221-0.89 5.2375-2.668 0.6211-1.031 0.9317-2.33 0.9317-3.911 0-1.92-0.3106-3.388-0.9317-4.418-0.48-0.819-1.1435-1.426-2.0047-1.793-0.8611-0.381-1.934-0.565-3.2328-0.565h-4.0092v13.369h4.0092v-0.014zm0 27.768c1.2988 0 2.3858-0.184 3.2328-0.565 0.8612-0.381 1.5247-0.974 2.0047-1.793 0.6211-1.03 0.9317-2.498 0.9317-4.418 0-1.581-0.3106-2.88-0.9317-3.911-1.0306-1.778-2.7811-2.668-5.2375-2.668h-4.0092v13.369h4.0092v-0.014z"/>
<path d="m58.342 301.22c-3.261-2.189-5.7032-5.548-7.3549-10.08-2.0611-5.689-3.0916-13.849-3.0916-24.479s1.0305-18.789 3.0916-24.479c1.6517-4.517 4.0939-7.877 7.3549-10.079 3.261-2.188 7.5949-3.289 13.002-3.289 5.4069 0 9.7549 1.101 13.016 3.289s5.7033 5.548 7.355 10.079c2.0611 5.69 3.0916 13.849 3.0916 24.479s-1.0305 18.79-3.0916 24.479c-1.6517 4.518-4.094 7.877-7.355 10.08-3.261 2.188-7.5949 3.289-13.016 3.289-5.4209 0-9.7548-1.101-13.002-3.289zm6.8326-23.604c0.2118 3.049 0.6494 5.506 1.3412 7.355 0.9599 2.739 2.5692 4.108 4.8279 4.108 2.2588 0 3.8681-1.369 4.8281-4.108 0.6776-1.849 1.1294-4.306 1.3411-7.355 0.2118-3.049 0.3106-6.706 0.3106-10.955s-0.0988-7.905-0.3106-10.955c-0.2117-3.049-0.6494-5.505-1.3411-7.354-0.96-2.739-2.5693-4.109-4.8281-4.109-2.2587 0-3.868 1.37-4.8279 4.109-0.6918 1.849-1.1294 4.305-1.3412 7.354-0.2117 3.05-0.3105 6.706-0.3105 10.955s0.0988 7.906 0.3105 10.955z"/>
<path d="m100.03 230.67h16.446v56.553h17.279v15.43h-33.725v-71.983z"/>
<path d="m138.29 230.67h20.258c5.421 0 9.755 1.101 13.002 3.289 3.261 2.188 5.703 5.548 7.355 10.08 2.061 5.689 3.091 13.227 3.091 22.629s-1.03 16.941-3.091 22.63c-1.638 4.517-4.094 7.891-7.355 10.079-3.261 2.189-7.595 3.29-13.002 3.29h-20.258v-71.997zm20.258 56.553c2.259 0 3.868-1.37 4.828-4.108 1.101-3.092 1.652-8.569 1.652-16.461 0-7.891-0.551-13.369-1.652-16.446-0.96-2.739-2.569-4.108-4.828-4.108h-3.812v41.137h3.812v-0.014z"/>
<path d="m181.84 231.93h-2.442v-0.876h5.802v0.876h-2.442v6.733h-0.918v-6.733z"/>
<path d="m186.31 231.05h1.496l2.259 6.311 0.099 0.635h0.155l0.085-0.635 2.273-6.311h1.482v7.609h-0.889v-6.959h-0.156l-0.127 1.073-2.131 5.886h-1.243l-2.145-5.886-0.128-1.073h-0.141v6.959h-0.903v-7.609h0.014z"/>
<path d="m0.55298 0h22.517c9.3172 0 15.529 2.7105 18.606 8.1173 1.6516 2.8798 2.4704 6.4514 2.4704 10.701 0 3.5716-0.7623 6.6491-2.2587 9.2608-2.541 4.3198-6.8891 6.4797-13.058 6.4797v2.5693c3.501 0 6.2538 0.5788 8.2726 1.7505 2.0187 1.1717 3.6139 2.7387 4.7856 4.7292 1.5105 2.6116 2.2587 5.7879 2.2587 9.5572 0 4.2492-0.8188 7.8208-2.4704 10.701-3.0775 5.421-9.289 8.1173-18.606 8.1173h-22.517v-71.982zm20.47 28.799c2.4705 0 4.221-0.8894 5.2374-2.6682 0.6212-1.0305 0.9317-2.3293 0.9317-3.9104 0-1.9199-0.3105-3.388-0.9317-4.4186-0.48-0.8188-1.1435-1.4258-2.0046-1.7928-0.8611-0.3812-1.934-0.5647-3.2328-0.5647h-4.0092v13.369h4.0092v-0.0141zm0 27.768c1.2988 0 2.3858-0.1836 3.2328-0.5647 0.8611-0.3812 1.5246-0.9741 2.0046-1.7929 0.6212-1.0305 0.9317-2.4987 0.9317-4.4186 0-1.5811-0.3105-2.8799-0.9317-3.9104-1.0305-1.7787-2.781-2.6681-5.2374-2.6681h-4.0092v13.369h4.0092v-0.0141z"/>
<path d="m54.748 67.973c-3.9105-3.9104-5.8586-9.2608-5.8586-16.037v-51.936h16.46v51.936c0 1.9199 0.5082 3.4869 1.5388 4.6727 1.0305 1.2 2.3293 1.7929 3.9104 1.7929s2.8657-0.5929 3.8539-1.7929c0.9882-1.1999 1.4964-2.7528 1.4964-4.6727v-51.936h16.446v51.936c0 6.7197-1.9482 12.056-5.8586 15.994-3.9104 3.9387-9.2183 5.9151-15.938 5.9151s-12.141-1.9482-16.037-5.8586l-0.0141-0.0141z"/>
<path d="M99.6824 0H116.129V71.9825H99.6824V0Z"/>
<path d="M124.26 0H140.72V56.5526H157.999V71.9825H124.274V0H124.26Z"/>
<path d="m164.97 15.43h-13.157v-15.43h42.775v15.43h-13.157v56.553h-16.461v-56.553z"/>
<path d="m30.118 78.038h34.756v15.43h-18.31v12.861h17.279v15.43h-17.279v28.276h-16.446v-71.997z"/>
<path d="m78.808 148.58c-3.261-2.188-5.7032-5.548-7.3549-10.08-2.0611-5.689-3.0916-13.848-3.0916-24.478 0-10.631 1.0305-18.79 3.0916-24.479 1.6517-4.5175 4.0939-7.8773 7.3549-10.08 3.2611-2.1881 7.595-3.2892 13.002-3.2892s9.7546 1.1011 13.016 3.2892c3.261 2.1882 5.704 5.548 7.355 10.08 2.061 5.6891 3.092 13.848 3.092 24.479 0 10.63-1.031 18.789-3.092 24.478-1.651 4.518-4.094 7.878-7.355 10.08-3.261 2.188-7.5947 3.289-13.016 3.289s-9.7548-1.101-13.002-3.289zm6.8327-23.604c0.2117 3.05 0.6493 5.506 1.3411 7.355 0.9599 2.739 2.5693 4.108 4.828 4.108s3.8681-1.369 4.828-4.108c0.6776-1.849 1.1294-4.305 1.3411-7.355 0.2118-3.049 0.3106-6.705 0.3106-10.954 0-4.25-0.0988-7.906-0.3106-10.955-0.2117-3.05-0.6494-5.5059-1.3411-7.3552-0.9599-2.7387-2.5693-4.1081-4.828-4.1081s-3.8681 1.3694-4.828 4.1081c-0.6918 1.8493-1.1294 4.3052-1.3411 7.3552-0.2118 3.049-0.3106 6.705-0.3106 10.955 0 4.249 0.0988 7.905 0.3106 10.954z"/>
<path d="m120.81 78.038h21.387c4.517 0 8.4 0.7765 11.618 2.3152 3.219 1.5388 5.718 3.7834 7.51 6.7338 1.85 3.1481 2.781 7.1009 2.781 11.83 0 3.6276-0.861 6.8886-2.569 9.7686-1.03 1.779-2.47 3.304-4.32 4.574-1.849 1.271-3.981 2.217-6.381 2.824v2.258l5.45 1.13 9.458 30.535h-18.409l-9.147-30.126h-0.918v30.126h-16.46v-71.969zm19.848 29.307c1.228 0 2.386-0.268 3.445-0.819 1.058-0.55 1.863-1.298 2.414-2.258 0.677-1.172 1.03-2.471 1.03-3.911 0-1.4396-0.31-2.569-0.931-3.5995-0.551-1.0306-1.356-1.8353-2.414-2.4141-1.059-0.5787-2.245-0.8752-3.544-0.8752h-3.388v13.877h3.388z"/>
</svg>
